PathFileType	4	(X/Y/Z)	/Users/itak/Documents/Research/Walk-IL/dataset/trc/00041_00004.trc
DataRate	CameraRate	NumFrames	NumMarkers	Units	OrigDataRate	OrigDataStartFrame	OrigNumFrames
100.000000	100.000000	4	53	mm	100.000000	69	555
Frame#	Time	RPSI			LPSI			L3			STRN			T10			C7			CLAV			RBAK			LBAK			LSHO			LUPA			LAEL			LAOL			LWTS			LWPS			LFRA			LIFD			LHPS			LHTS			RSHO			RUPA			RAEL			RAOL			RWTS			RWPS			RFRA			RIFD			RHTS			RHPS			RBHD			LFHD			RFHD			LBHD			LHIP			RHIP			RASI			LASI			LKNE			LTHI			LANK			LTIP			LTOE			LMT1			LMT5			LHEE			RKNE			RTHI			RTIP			RTOE			RMT1			RMT5			RANK			RHEE			
		X1	Y1	Z1	X2	Y2	Z2	X3	Y3	Z3	X4	Y4	Z4	X5	Y5	Z5	X6	Y6	Z6	X7	Y7	Z7	X8	Y8	Z8	X9	Y9	Z9	X10	Y10	Z10	X11	Y11	Z11	X12	Y12	Z12	X13	Y13	Z13	X14	Y14	Z14	X15	Y15	Z15	X16	Y16	Z16	X17	Y17	Z17	X18	Y18	Z18	X19	Y19	Z19	X20	Y20	Z20	X21	Y21	Z21	X22	Y22	Z22	X23	Y23	Z23	X24	Y24	Z24	X25	Y25	Z25	X26	Y26	Z26	X27	Y27	Z27	X28	Y28	Z28	X29	Y29	Z29	X30	Y30	Z30	X31	Y31	Z31	X32	Y32	Z32	X33	Y33	Z33	X34	Y34	Z34	X35	Y35	Z35	X36	Y36	Z36	X37	Y37	Z37	X38	Y38	Z38	X39	Y39	Z39	X40	Y40	Z40	X41	Y41	Z41	X42	Y42	Z42	X43	Y43	Z43	X44	Y44	Z44	X45	Y45	Z45	X46	Y46	Z46	X47	Y47	Z47	X48	Y48	Z48	X49	Y49	Z49	X50	Y50	Z50	X51	Y51	Z51	X52	Y52	Z52	X53	Y53	Z53	

70	0.6900000000000001	-1224.093139648438	1077.817749023438	147.0466156005859	-1224.766967773438	1065.488403320312	-17.79623031616211	-1230.050659179688	1126.61572265625	53.50629425048828	-1017.789428710938	1328.402709960938	62.46648025512695	-1263.16064453125	1266.095336914062	43.70720291137695	-1226.77099609375	1535.202880859375	27.03361129760742	-1064.173461914062	1452.699951171875	50.70711135864258	-1276.69384765625	1397.995239257812	106.6568222045898	-1233.673950195312	1490.010375976562	-70.89325714111328	-1125.103881835938	1501.169799804688	-135.9474945068359	-1141.408813476562	1370.544555664062	-210.7946166992188	-1128.857788085938	1151.235107421875	-225.0428771972656	-1192.336059570312	1141.05322265625	-140.6368560791016	-1046.859375	901.1488647460938	-151.50390625	-1117.112915039062	885.4194946289062	-201.0222015380859	-1114.673461914062	1035.735107421875	-225.3616333007812	-1022.533386230469	718.0077514648438	-122.3620147705078	-1084.114379882812	795.8297119140625	-193.6863861083984	-1023.302856445312	807.8094482421875	-158.5530853271484	-1167.9833984375	1530.166137695312	209.772216796875	-1184.7373046875	1460.77587890625	281.6363830566406	-1209.455200195312	1190.486694335938	305.7189636230469	-1197.374633789062	1162.324096679688	210.0949401855469	-1071.8642578125	933.6028442382812	293.5	-1142.794067382812	918.781005859375	351.3847351074219	-1195.834716796875	1115.336791992188	323.9473266601562	-1050.823120117188	748.336669921875	284.3224182128906	-1038.031494140625	825.6868896484375	313.1618347167969	-1099.374389648438	820.1815185546875	357.0496520996094	-1190.78466796875	1717.529052734375	-35.60050582885742	-1031.089599609375	1755.662353515625	108.3832092285156	-1019.695983886719	1757.41064453125	10.81606769561768	-1200.778686523438	1713.553466796875	108.9585876464844	-1125.933715820312	960.3439331054688	-121.8264236450195	-1113.637451171875	964.4514770507812	248.8220825195312	-1007.865539550781	999.5192260742188	177.7207641601562	-1010.304504394531	1009.970886230469	-56.67720794677734	-1098.513427734375	516.5786743164062	-60.88586807250977	-1115.918701171875	652.9031372070312	-99.81032562255859	-1197.49169921875	41.74393844604492	-51.13081359863281	-1181.083618164062	288.0802612304688	-76.12744903564453	-981.3306884765625	41.36246490478516	22.4857177734375	-1041.373413085938	50.77077484130859	37.02167892456055	-1073.344970703125	41.32426452636719	-65.38977813720703	-1269.963500976562	50.11987686157227	-1.209218859672546	-1110.145263671875	526.2959594726562	203.3193817138672	-1090.8212890625	795.5828857421875	247.4631042480469	-1137.673461914062	405.9233093261719	202.3247375488281	-990.8214721679688	45.80868148803711	142.1118011474609	-1054.351928710938	50.55449676513672	111.0346603393555	-1075.009887695312	45.405517578125	205.4029693603516	-1224.754760742188	47.72629547119141	179.9863128662109	-1279.028076171875	48.22117233276367	133.1868591308594	
71	0.7000000000000001	-1224.244873046875	1077.800537109375	147.1162414550781	-1224.80908203125	1065.477905273438	-17.68071556091309	-1230.141723632812	1126.599975585938	53.60589599609375	-1017.887329101562	1328.388671875	62.62025833129883	-1263.239379882812	1266.09326171875	43.82302856445312	-1226.8271484375	1535.2021484375	27.13712882995605	-1064.267333984375	1452.686645507812	50.85523223876953	-1276.787109375	1397.997192382812	106.7829360961914	-1233.757568359375	1490.0146484375	-70.76302337646484	-1125.200439453125	1501.162963867188	-135.8142242431641	-1141.417114257812	1370.55908203125	-210.6809692382812	-1128.795776367188	1151.2509765625	-224.9785003662109	-1192.2939453125	1141.022705078125	-140.6091003417969	-1046.562255859375	901.2512817382812	-151.4972076416016	-1116.875610351562	885.47412109375	-201.0133819580078	-1114.486572265625	1035.777465820312	-225.3284912109375	-1022.142150878906	718.0972900390625	-122.319938659668	-1083.736450195312	795.8837890625	-193.69091796875	-1022.99267578125	807.9168090820312	-158.5089263916016	-1168.091552734375	1530.1669921875	209.9188079833984	-1184.809936523438	1460.778686523438	281.75439453125	-1209.354125976562	1190.449829101562	305.8421325683594	-1197.302978515625	1162.318603515625	210.2145080566406	-1071.519287109375	933.8622436523438	293.5316162109375	-1142.27734375	918.8281860351562	351.3424377441406	-1195.589721679688	1115.28955078125	324.0797119140625	-1050.045043945312	748.564453125	284.1977233886719	-1037.268798828125	825.9334106445312	313.1313781738281	-1098.613891601562	820.291259765625	356.9975280761719	-1190.627563476562	1717.673095703125	-35.47444534301758	-1030.948852539062	1755.484619140625	108.4834365844727	-1019.486145019531	1757.214477539062	10.92411804199219	-1200.653442382812	1713.632202148438	109.0562438964844	-1125.94775390625	960.358154296875	-121.6939468383789	-1113.740112304688	964.4636840820312	248.9891052246094	-1007.971557617188	999.5407104492188	177.8837890625	-1010.359008789062	1009.99267578125	-56.5509033203125	-1098.505004882812	516.5917358398438	-60.79693603515625	-1115.8974609375	652.919189453125	-99.68744659423828	-1197.483032226562	41.75045394897461	-51.12186431884766	-1181.070434570312	288.0953979492188	-76.08191680908203	-981.3302001953125	41.36193084716797	22.48674011230469	-1041.382934570312	50.7684440612793	37.04181671142578	-1073.347412109375	41.32996368408203	-65.38405609130859	-1269.964233398438	50.11864471435547	-1.210042119026184	-1110.18212890625	526.2941284179688	203.3830108642578	-1090.848999023438	795.53564453125	247.4974517822266	-1137.685913085938	405.9175415039062	202.3716888427734	-990.8106689453125	45.8227653503418	142.1007843017578	-1054.39794921875	50.56355285644531	111.0371017456055	-1075.00927734375	45.39705276489258	205.3987884521484	-1224.754516601562	47.71882247924805	179.9887237548828	-1279.019653320312	48.20967102050781	133.1939544677734	
72	0.71	-1224.37255859375	1077.783447265625	147.1908874511719	-1224.833251953125	1065.465209960938	-17.56243324279785	-1230.216430664062	1126.579956054688	53.70670700073242	-1017.976928710938	1328.37353515625	62.77935409545898	-1263.304931640625	1266.083618164062	43.94631195068359	-1226.908081054688	1535.203979492188	27.26785850524902	-1064.356079101562	1452.67822265625	51.00778198242188	-1276.87451171875	1397.991455078125	106.9143218994141	-1233.838256835938	1490.02001953125	-70.62555694580078	-1125.28955078125	1501.15625	-135.6768951416016	-1141.41796875	1370.577270507812	-210.5592498779297	-1128.739379882812	1151.26806640625	-224.9141082763672	-1192.257568359375	1140.990966796875	-140.578857421875	-1046.23876953125	901.3565673828125	-151.4817504882812	-1116.658325195312	885.5320434570312	-201.0132904052734	-1114.295776367188	1035.819091796875	-225.2946319580078	-1021.728149414062	718.2026977539062	-122.2840881347656	-1083.329711914062	795.930419921875	-193.6961975097656	-1022.686462402344	808.0261840820312	-158.4623413085938	-1168.204956054688	1530.165893554688	210.0820770263672	-1184.873291015625	1460.775268554688	281.880615234375	-1209.244750976562	1190.405639648438	305.9698486328125	-1197.224487304688	1162.307861328125	210.3381805419922	-1071.172241210938	934.1394653320312	293.5851745605469	-1141.759033203125	918.8670043945312	351.296630859375	-1195.374267578125	1115.237548828125	324.1846923828125	-1049.255737304688	748.7951049804688	284.0701904296875	-1036.528442382812	826.1732788085938	313.0912475585938	-1097.836547851562	820.3527221679688	356.9051208496094	-1190.470336914062	1717.806274414062	-35.34273910522461	-1030.817993164062	1755.303466796875	108.5841293334961	-1019.29296875	1757.023681640625	11.03808307647705	-1200.537353515625	1713.691162109375	109.166145324707	-1125.939453125	960.3709106445312	-121.5590972900391	-1113.74169921875	964.4778442382812	249.1729278564453	-1008.079650878906	999.5582275390625	178.0444641113281	-1010.387756347656	1010.023803710938	-56.42381286621094	-1098.502685546875	516.6055908203125	-60.70858001708984	-1115.87744140625	652.9338989257812	-99.57013702392578	-1197.476440429688	41.75747299194336	-51.11190414428711	-1181.0595703125	288.1092224121094	-76.03596496582031	-981.3291015625	41.36132049560547	22.48760986328125	-1041.38671875	50.76539611816406	37.05674743652344	-1073.3486328125	41.33562469482422	-65.37763214111328	-1269.964965820312	50.11700439453125	-1.21027398109436	-1110.222778320312	526.2882690429688	203.4462585449219	-1090.894653320312	795.4850463867188	247.5435943603516	-1137.701904296875	405.9104614257812	202.4145965576172	-990.803466796875	45.83261871337891	142.0921020507812	-1054.4326171875	50.57168197631836	111.0397644042969	-1075.005249023438	45.38352966308594	205.3919677734375	-1224.755737304688	47.71102142333984	179.9913482666016	-1279.010620117188	48.19913101196289	133.2003784179688	
73	0.72	-1224.472778320312	1077.767211914062	147.2721252441406	-1224.838623046875	1065.45166015625	-17.44169616699219	-1230.272827148438	1126.55615234375	53.80946350097656	-1018.059936523438	1328.356689453125	62.94315338134766	-1263.355834960938	1266.066528320312	44.07721710205078	-1227.014892578125	1535.207641601562	27.42615509033203	-1064.436401367188	1452.674682617188	51.16220092773438	-1276.955444335938	1397.97802734375	107.0512161254883	-1233.917724609375	1490.026489257812	-70.48003387451172	-1125.370239257812	1501.1513671875	-135.5354614257812	-1141.412109375	1370.599853515625	-210.4296417236328	-1128.68798828125	1151.28759765625	-224.8500213623047	-1192.226684570312	1140.958862304688	-140.5455322265625	-1045.894287109375	901.465576171875	-151.4576721191406	-1116.456176757812	885.5906982421875	-201.0195922851562	-1114.106201171875	1035.860473632812	-225.2594909667969	-1021.281921386719	718.3206176757812	-122.2545318603516	-1082.909057617188	795.9746704101562	-193.7046356201172	-1022.3681640625	808.144775390625	-158.4096832275391	-1168.31982421875	1530.162353515625	210.2611236572266	-1184.926147460938	1460.764404296875	282.0156860351562	-1209.1298828125	1190.352783203125	306.1015014648438	-1197.139526367188	1162.29052734375	210.4669036865234	-1070.818725585938	934.4321899414062	293.6614074707031	-1141.227416992188	918.8936767578125	351.2569580078125	-1195.190063476562	1115.1796875	324.2628173828125	-1048.438598632812	749.0287475585938	283.9388122558594	-1035.827514648438	826.4088134765625	313.0313720703125	-1097.049926757812	820.3685302734375	356.7834167480469	-1190.318725585938	1717.93017578125	-35.20589447021484	-1030.687744140625	1755.119995117188	108.6880569458008	-1019.115661621094	1756.83837890625	11.15980815887451	-1200.427978515625	1713.741821289062	109.2949981689453	-1125.910888671875	960.3818359375	-121.4239349365234	-1113.6650390625	964.4947509765625	249.3677368164062	-1008.1865234375	999.5679321289062	178.1990051269531	-1010.393493652344	1010.061706542969	-56.29544448852539	-1098.505493164062	516.6201782226562	-60.62070846557617	-1115.859619140625	652.9478149414062	-99.45954895019531	-1197.472290039062	41.76541519165039	-51.10091018676758	-1181.050659179688	288.1216735839844	-75.98860931396484	-981.326904296875	41.3603515625	22.48872566223145	-1041.3837890625	50.76080703735352	37.06420516967773	-1073.349243164062	41.34167098999023	-65.37094879150391	-1269.965942382812	50.11634063720703	-1.209712743759155	-1110.268798828125	526.2791137695312	203.5108032226562	-1090.960327148438	795.4362182617188	247.6035461425781	-1137.722045898438	405.9026184082031	202.4541168212891	-990.8013305664062	45.83657073974609	142.0871887207031	-1054.45068359375	50.57793426513672	111.0417175292969	-1074.999389648438	45.36820983886719	205.3845672607422	-1224.75830078125	47.70248413085938	179.9951019287109	-1279.001831054688	48.18954849243164	133.2064208984375	
